<svg version="1.2" xmlns="http://www.w3.org/2000/svg" viewBox="0 0 493 161" width="493" height="161">
	<title>nymbl_pay-svg</title>
	<style>
		.s0 { fill: #ffffff } 
	</style>
	<g id="Layer">
		<path id="Layer" class="s0" d="m220.9 110.7h-13.1v-26.6q0-6.2-2.2-9.1-2.2-2.9-6.9-2.9-4.8 0-7 2.9-2.1 2.9-2.2 9.1v26.6h-13.1v-26.6q0-12.4 6.1-18.6 6-6.2 16.2-6.2 10.1 0 16.1 6.2 6.1 6.2 6.1 18.6z"/>
		<path id="Layer" class="s0" d="m233.4 139.2q-5.7-4.5-8.4-12.1h14.7q1.5 1.9 3.1 2.8 1.5 0.9 4.2 0.9 4.5 0 6.7-2.2 2.3-2.2 2.3-5.9v-0.3q-4.4 1.8-9 1.8-10.2 0-16.2-6.2-6.1-6.2-6.1-18.6v-27.3h13.1v27.3q0 6.2 2.2 9.1 2.2 2.9 7 2.9 4.7 0 6.9-2.9 2.2-2.9 2.2-9.1v-27.3h13.1v48.8q0 6.3-2.9 11.6-2.8 5.2-7.9 8.2-5.1 2.9-11.4 2.9-7.8 0-13.6-4.4z"/>
		<path id="Layer" class="s0" d="m345.4 65.6q6.3 6.2 6.3 18.5v26.6h-13.2v-26.6q0-6.1-2.3-9-2.4-3-7.3-3-4.9 0-7.3 3-2.3 2.9-2.3 9v26.6h-13.2v-26.6q0-6.1-2.3-9-2.3-3-7.3-3-4.9 0-7.2 3-2.4 2.9-2.4 9v26.6h-13.2v-26.6q0-12.3 6.3-18.5 6.3-6.3 16.5-6.3 5 0 9.2 1.8 4.2 1.7 7 5.2 2.7-3.5 6.9-5.2 4.2-1.8 9.3-1.8 10.2 0 16.5 6.3z"/>
		<path id="Layer" fill-rule="evenodd" class="s0" d="m355.1 39.9h13.2v23.2q5.4-3.8 12.8-3.8 7.1 0 13 3.5 6 3.5 9.5 9.5 3.6 6 3.6 13.1 0 7.1-3.6 13.1-3.5 6-9.5 9.5-5.9 3.5-13 3.5-7.1 0-13.1-3.5-5.9-3.5-9.4-9.5-3.5-6-3.5-13.1c0 0 0-45.5 0-45.5zm16.8 36q-3.8 3.8-3.8 9.5 0 5.7 3.8 9.5 3.7 3.7 9.3 3.7 5.5 0 9.2-3.7 3.6-3.8 3.6-9.5 0-5.7-3.6-9.5-3.7-3.8-9.2-3.8-5.6 0-9.3 3.8z"/>
		<path id="Layer" class="s0" d="m410.1 110.7v-70.8h13.2v70.8z"/>
		<g id="Layer">
			<path id="Layer" class="s0" d="m435 25.8h-1.9v-0.8h4.6v0.8h-1.8v5.2h-0.9c0 0 0-5.2 0-5.2z"/>
			<path id="Layer" class="s0" d="m443.6 26.2l-1.9 4.8h-0.4l-1.9-4.8v4.8h-0.9v-6h1.3l1.7 4.3 1.7-4.3h1.3v6h-0.9v-4.8z"/>
		</g>
		<path id="Layer" class="s0" d="m77.5 24.7c6.6 0 12 5.4 12 11.9v62.3c0 6.6-5.4 12-12 12-6.5 0-11.9-5.4-11.9-12v-62.3c0-6.5 5.4-11.9 11.9-11.9z"/>
		<path id="Layer" class="s0" d="m105.2 50.2c6.6 0 11.9 5.4 11.9 11.9v36.8c0 6.6-5.3 12-11.9 12-6.6 0-11.9-5.4-11.9-12v-36.8c0-6.5 5.3-11.9 11.9-11.9z"/>
		<path id="Layer" class="s0" d="m132.9 57.5c6.5 0 11.9 5.3 11.9 11.9v29.5c0 6.6-5.4 12-11.9 12-6.6 0-12-5.4-12-12v-29.5c0-6.6 5.4-11.9 12-11.9z"/>
	</g>
	<g id="Layer">
		<path id="Layer" fill-rule="evenodd" class="s0" d="m373.4 124q3.2 0 4.6 1.4 1.4 1.5 1.4 4.3v2.1q0 2.9-1.4 4.4-1.4 1.4-4.6 1.4h-11.7v5.4q0 0.6-0.6 0.6h-3q-0.7 0-0.7-0.6v-18.2q0-0.8 0.9-0.8c0 0 15.1 0 15.1 0zm-11.7 9.9h10.8q1.4 0 2-0.6 0.6-0.6 0.6-1.9v-1.1q0-1.2-0.6-1.8-0.6-0.7-2-0.7h-10.4q-0.4 0-0.4 0.4c0 0 0 5.7 0 5.7z"/>
		<path id="Layer" fill-rule="evenodd" class="s0" d="m392.4 124q1.1 0 1.8 0.4 0.7 0.4 1.4 1.7l9.3 16.9q0.2 0.3 0.1 0.4-0.1 0.2-0.4 0.2h-3.6q-0.4 0-0.6-0.3l-2-3.7h-13.2l-2 3.7q-0.2 0.3-0.6 0.3h-3.7q-0.3 0-0.4-0.2-0.1-0.1 0.1-0.4l9.2-16.9q0.7-1.3 1.4-1.7 0.6-0.4 1.5-0.4zm-5.4 12.4h9.7l-4.5-8.2q-0.1-0.2-0.3-0.2h-0.2q-0.2 0-0.3 0.2z"/>
		<path id="Layer" class="s0" d="m405.7 124q0.4 0 0.7 0.3l7.5 10.1 7.5-10.1q0.3-0.3 0.7-0.3h3.7q0.2 0 0.3 0.1 0.1 0.2-0.1 0.4l-10.1 13.1v5.4q0 0.6-0.6 0.6h-3q-0.7 0-0.7-0.6v-5.4l-9.9-13.1q-0.2-0.2-0.1-0.4 0-0.1 0.3-0.1z"/>
	</g>
</svg>