<svg version="1.2" xmlns="http://www.w3.org/2000/svg" viewBox="0 0 438 176" width="438" height="176">
	<title>nymbl_pos-svg</title>
	<style>
		tspan { white-space:pre } 
		.s0 { fill: #ffffff } 
		.t1 { font-size: 13px;fill: #000000;font-weight: 400;font-family: "LiberationSans", "Liberation Sans" } 
	</style>
	<g id="Layer">
		<path id="Layer" class="s0" d="m187.8 109.7h-13.2v-26.6q0-6.2-2.2-9.1-2.1-2.9-6.9-2.9-4.7 0-6.9 2.9-2.2 2.9-2.2 9.1v26.6h-13.2v-26.6q0-12.4 6.1-18.6 6.1-6.2 16.2-6.2 10.1 0 16.2 6.2 6.1 6.2 6.1 18.6v26.6z"/>
		<path id="Layer" class="s0" d="m200.3 138.2q-5.7-4.5-8.4-12.1h14.6q1.5 1.9 3.1 2.8 1.6 0.9 4.2 0.9 4.6 0 6.8-2.2 2.2-2.2 2.2-5.9v-0.3q-4.3 1.8-9 1.8-10.1 0-16.2-6.2-6.1-6.2-6.1-18.6v-27.3h13.2v27.3q0 6.2 2.2 9.1 2.2 2.9 6.9 2.9 4.8 0 6.9-2.9 2.2-2.9 2.2-9.1v-27.3h13.2v48.8q0 6.3-2.9 11.6-2.9 5.2-7.9 8.2-5.1 2.9-11.5 2.9-7.8 0-13.5-4.4z"/>
		<path id="Layer" class="s0" d="m312.2 64.6q6.3 6.2 6.3 18.5v26.6h-13.1v-26.6q-0.1-6.1-2.4-9-2.3-3-7.3-3-4.8 0-7.2 3-2.4 2.9-2.4 9v26.6h-13.1v-26.6q0-6.1-2.4-9-2.3-3-7.3-3-4.8 0-7.2 3-2.4 2.9-2.4 9v26.6h-13.1v-26.6q0-12.2 6.2-18.5 6.3-6.3 16.5-6.3 5.1 0 9.3 1.8 4.2 1.7 6.9 5.2 2.8-3.5 7-5.2 4.2-1.8 9.2-1.8 10.3 0 16.5 6.3z"/>
		<path id="Layer" fill-rule="evenodd" class="s0" d="m321.9 38.9h13.3v23.2q5.3-3.8 12.7-3.8 7.1 0 13.1 3.5 5.9 3.5 9.5 9.5 3.5 6 3.5 13.1 0 7.1-3.5 13.1-3.6 6-9.5 9.5-6 3.5-13.1 3.5-7.1 0-13-3.5-6-3.5-9.5-9.5-3.5-6-3.5-13.1c0 0 0-45.5 0-45.5zm16.8 36q-3.7 3.8-3.7 9.5 0 5.7 3.7 9.5 3.8 3.8 9.3 3.7 5.6 0 9.2-3.7 3.7-3.8 3.7-9.5 0-5.7-3.7-9.5-3.6-3.8-9.2-3.8-5.5 0-9.3 3.8z"/>
		<path id="Layer" class="s0" d="m377 109.7v-70.8h13.1v70.8z"/>
		<text id="TM" style="transform: matrix(1,0,0,1,399.706,29.979)" >
			<tspan x="0" y="0" class="t1">TM
</tspan>
		</text>
		<path id="Layer" class="s0" d="m44.4 23.7c6.6 0 11.9 5.4 11.9 12v62.2c0 6.6-5.3 12-11.9 12-6.6 0-11.9-5.4-11.9-12v-62.3c0-6.5 5.3-11.9 11.9-11.9z"/>
		<path id="Layer" class="s0" d="m72 49.2c6.6 0 12 5.4 12 11.9v36.8c0 6.6-5.4 12-12 12-6.5 0-11.9-5.4-11.9-12v-36.8c0-6.5 5.4-11.9 11.9-11.9z"/>
		<path id="Layer" class="s0" d="m99.7 56.5c6.6 0 12 5.3 12 11.9v29.5c0 6.6-5.4 12-12 12-6.6 0-11.9-5.4-11.9-12v-29.5c0-6.5 5.3-11.9 11.9-11.9z"/>
	</g>
	<g id="Layer">
		<path id="Layer" fill-rule="evenodd" class="s0" d="m334.2 122.4q3.2 0 4.6 1.4 1.4 1.4 1.4 4.3v2q0 2.9-1.4 4.3-1.4 1.4-4.6 1.4h-11.4v5.4q0 0.6-0.7 0.6h-3q-0.6 0-0.6-0.6v-18q0-0.8 0.8-0.8c0 0 14.9 0 14.9 0zm-11.4 9.8h10.6q1.4 0 2-0.6 0.6-0.6 0.6-1.9v-1q0-1.3-0.6-1.9-0.6-0.6-2-0.6h-10.3q-0.3 0-0.3 0.3z"/>
		<path id="Layer" fill-rule="evenodd" class="s0" d="m359.6 122.4q2.1 0 3.6 0.4 1.5 0.4 2.5 1.2 0.9 0.9 1.3 2.3 0.4 1.4 0.4 3.4v4.8q0 2-0.4 3.4-0.4 1.4-1.3 2.2-1 0.9-2.5 1.3-1.4 0.4-3.6 0.4h-8.5q-2.2 0-3.6-0.4-1.5-0.4-2.4-1.3-0.9-0.8-1.4-2.2-0.4-1.4-0.4-3.4v-4.8q0-2 0.4-3.4 0.5-1.4 1.4-2.3 0.9-0.8 2.4-1.2 1.4-0.4 3.6-0.4zm-12.1 11.8q0 1 0.1 1.8 0.2 0.7 0.6 1.2 0.5 0.4 1.2 0.6 0.7 0.1 1.8 0.1h8.2q1.1 0 1.8-0.1 0.7-0.2 1.1-0.6 0.4-0.5 0.6-1.2 0.2-0.8 0.2-1.8v-4.2q0-1.1-0.2-1.8-0.2-0.8-0.6-1.2-0.4-0.4-1.1-0.6-0.7-0.2-1.8-0.2h-8.2q-1.1 0-1.8 0.2-0.7 0.2-1.2 0.6-0.4 0.4-0.6 1.2-0.1 0.7-0.1 1.8z"/>
		<path id="Layer" class="s0" d="m390.7 122.4q0.6 0 0.6 0.6v2.6q0 0.6-0.6 0.6h-13.9q-0.8 0-1.1 0.4-0.4 0.5-0.4 1.2v0.9q0 1.6 1.5 1.6h10.4q2.4 0 3.6 1.2 1.2 1.2 1.2 3.6v2.2q0 2-1.1 3.3-1.2 1.2-3.8 1.2h-15.3q-0.7 0-0.7-0.6v-2.6q0-0.7 0.7-0.7h14.5q0.8 0 1.2-0.4 0.3-0.4 0.3-1.1v-1.2q0-1.5-1.4-1.5h-10.5q-2.4 0-3.6-1.2-1.2-1.3-1.2-3.6v-2q0-2 1.2-3.3 1.2-1.2 3.7-1.2z"/>
	</g>
</svg>