<svg version="1.2" xmlns="http://www.w3.org/2000/svg" viewBox="0 0 440 187" width="440" height="187">
	<title>nymbl_suite-svg</title>
	<style>
		.s0 { fill: #221f20 } 
		.s1 { fill: #7500ff } 
	</style>
	<g id="Layer">
		<g id="Layer">
			<path id="Layer" class="s0" d="m185.9 107.7h-13.1v-26.6q0-6.2-2.2-9.1-2.2-2.9-6.9-2.9-4.8 0-7 2.9-2.1 2.9-2.2 9.1v26.6h-13.1v-26.6q0-12.4 6.1-18.6 6-6.2 16.2-6.2 10.1 0 16.1 6.2 6.1 6.2 6.1 18.6z"/>
			<path id="Layer" class="s0" d="m198.4 136.2q-5.7-4.5-8.4-12.1h14.7q1.5 1.9 3.1 2.8 1.5 0.9 4.2 0.9 4.5 0 6.7-2.2 2.3-2.2 2.3-5.9v-0.3q-4.4 1.8-9 1.8-10.2 0-16.2-6.2-6.1-6.2-6.1-18.6v-27.3h13.1v27.3q0 6.2 2.2 9.1 2.2 2.9 7 2.9 4.7 0 6.9-2.9 2.2-2.9 2.2-9.1v-27.3h13.1v48.8q0 6.3-2.9 11.6-2.8 5.2-7.9 8.2-5.1 2.9-11.4 2.9-7.8 0-13.6-4.4z"/>
			<path id="Layer" class="s0" d="m310.4 62.6q6.3 6.2 6.3 18.5v26.6h-13.2v-26.6q0-6.1-2.3-9-2.4-3-7.3-3-4.9 0-7.3 3-2.3 2.9-2.3 9v26.6h-13.2v-26.6q0-6.1-2.3-9-2.3-3-7.3-3-4.9 0-7.2 3-2.4 2.9-2.4 9v26.6h-13.2v-26.6q0-12.3 6.3-18.5 6.3-6.3 16.5-6.3 5 0 9.2 1.8 4.2 1.7 7 5.2 2.7-3.5 6.9-5.2 4.2-1.8 9.3-1.8 10.2 0 16.5 6.3z"/>
			<path id="Layer" fill-rule="evenodd" class="s0" d="m320.1 36.9h13.2v23.2q5.4-3.8 12.8-3.8 7.1 0 13 3.5 6 3.5 9.5 9.5 3.6 6 3.6 13.1 0 7.1-3.6 13.1-3.5 6-9.5 9.5-5.9 3.5-13 3.5-7.1 0-13.1-3.5-5.9-3.5-9.4-9.5-3.5-6-3.5-13.1c0 0 0-45.5 0-45.5zm16.8 36q-3.8 3.8-3.8 9.5 0 5.7 3.8 9.5 3.7 3.7 9.3 3.7 5.5 0 9.2-3.7 3.6-3.8 3.6-9.5 0-5.7-3.6-9.5-3.7-3.8-9.2-3.8-5.6 0-9.3 3.8z"/>
			<path id="Layer" class="s0" d="m375.1 107.7v-70.8h13.2v70.8z"/>
			<g id="Layer">
				<path id="Layer" class="s0" d="m400 22.8h-1.9v-0.8h4.6v0.8h-1.8v5.2h-0.9c0 0 0-5.2 0-5.2z"/>
				<path id="Layer" class="s0" d="m408.6 23.2l-1.9 4.8h-0.4l-1.9-4.8v4.8h-0.9v-6h1.3l1.7 4.3 1.7-4.3h1.3v6h-0.9v-4.8z"/>
			</g>
			<path id="Layer" class="s1" d="m42.5 21.7c6.6 0 12 5.4 12 11.9v62.3c0 6.6-5.4 12-12 12-6.5 0-11.9-5.4-11.9-12v-62.3c0-6.5 5.4-11.9 11.9-11.9z"/>
			<path id="Layer" class="s1" d="m70.2 47.2c6.6 0 11.9 5.4 11.9 11.9v36.8c0 6.6-5.3 12-11.9 12-6.6 0-11.9-5.4-11.9-12v-36.8c0-6.5 5.3-11.9 11.9-11.9z"/>
			<path id="Layer" class="s1" d="m97.9 54.5c6.5 0 11.9 5.3 11.9 11.9v29.5c0 6.6-5.4 12-11.9 12-6.6 0-12-5.4-12-12v-29.5c0-6.6 5.4-11.9 12-11.9z"/>
		</g>
		<g id="Layer">
			<path id="Layer" class="s0" d="m303.4 116.3q0.6 0 0.6 0.6v2.7q0 0.6-0.6 0.6h-14.1q-0.8 0-1.2 0.4-0.3 0.4-0.3 1.1v1q0 1.6 1.4 1.6h10.6q2.4 0 3.7 1.2 1.2 1.3 1.2 3.6v2.2q0 2.1-1.2 3.4-1.2 1.2-3.8 1.2h-15.5q-0.7 0-0.7-0.6v-2.7q0-0.6 0.7-0.6h14.7q0.8 0 1.2-0.4 0.3-0.4 0.3-1.2v-1.1q0-1.6-1.5-1.6h-10.5q-2.4 0-3.7-1.2-1.2-1.3-1.2-3.6v-2.1q0-2 1.2-3.3 1.2-1.2 3.8-1.2c0 0 14.9 0 14.9 0z"/>
			<path id="Layer" class="s0" d="m312.1 116.3q0.6 0 0.6 0.6v11.2q0 1.1 0.2 1.9 0.2 0.7 0.6 1.1 0.4 0.5 1.1 0.7 0.8 0.1 1.8 0.1h7.8q1.1 0 1.8-0.1 0.8-0.2 1.2-0.7 0.4-0.4 0.6-1.1 0.1-0.8 0.1-1.9v-11.2q0.1-0.6 0.7-0.6h3q0.6 0 0.6 0.6v11.6q0 2-0.4 3.4-0.4 1.5-1.3 2.4-1 0.8-2.5 1.2-1.5 0.4-3.6 0.4h-8.1q-2.1 0-3.6-0.4-1.5-0.4-2.5-1.2-0.9-0.9-1.3-2.4-0.5-1.4-0.5-3.4v-11.6q0-0.6 0.7-0.6z"/>
			<path id="Layer" class="s0" d="m340.2 116.3q0.6 0 0.6 0.6v18.4q0 0.6-0.6 0.6h-3.1q-0.6 0-0.6-0.6v-18.4q0-0.6 0.6-0.6z"/>
			<path id="Layer" class="s0" d="m366.5 116.3q0.6 0 0.6 0.6v2.7q0 0.7-0.6 0.7h-8.8v15q-0.1 0.6-0.7 0.6h-3q-0.6 0-0.6-0.6v-15h-8.9q-0.6 0-0.6-0.7v-2.7q0-0.6 0.6-0.6z"/>
			<path id="Layer" class="s0" d="m389.6 116.3q0.7 0 0.7 0.6v2.7q0 0.6-0.7 0.6h-12.3q-1 0-1.8 0.2-0.7 0.1-1.1 0.6-0.4 0.4-0.6 1.2-0.2 0.7-0.2 1.8v0.3h15.9q0.6 0 0.6 0.6v2.2q0 0.6-0.6 0.6h-15.9v0.5q0 1.1 0.2 1.9 0.1 0.7 0.6 1.1 0.4 0.5 1.1 0.7 0.8 0.1 1.9 0.1h12.2q0.7 0 0.7 0.7v2.6q0 0.6-0.7 0.6h-12.3q-2.2 0-3.7-0.3-1.4-0.4-2.4-1.3-0.9-0.9-1.4-2.3-0.4-1.4-0.4-3.5v-4.8q0-2 0.4-3.4 0.5-1.4 1.4-2.3 1-0.9 2.4-1.3 1.5-0.4 3.7-0.4h12.3z"/>
		</g>
	</g>
</svg>